<mxfile host="app.diagrams.net" modified="2022-10-27T12:49:38.757Z" agent="5.0 (X11; Linux x86_64) AppleWebKit/537.36 (KHTML, like Gecko) Chrome/106.0.0.0 Safari/537.36" etag="6WTT_ArX6ZcD0vhgQJlR" version="20.5.1" type="github">
  <diagram id="C5RBs43oDa-KdzZeNtuy" name="Page-1">
    <mxGraphModel dx="1247" dy="642" grid="1" gridSize="10" guides="1" tooltips="1" connect="1" arrows="1" fold="1" page="1" pageScale="1" pageWidth="827" pageHeight="1169" math="0" shadow="0">
      <root>
        <mxCell id="WIyWlLk6GJQsqaUBKTNV-0" />
        <mxCell id="WIyWlLk6GJQsqaUBKTNV-1" parent="WIyWlLk6GJQsqaUBKTNV-0" />
        <mxCell id="Uk3zO1UtHS6cS2w6a-4t-31" style="edgeStyle=orthogonalEdgeStyle;rounded=0;orthogonalLoop=1;jettySize=auto;html=1;exitX=0.5;exitY=1;exitDx=0;exitDy=0;entryX=0.5;entryY=0;entryDx=0;entryDy=0;fontSize=15;strokeColor=#FFFFFF;strokeWidth=4;" edge="1" parent="WIyWlLk6GJQsqaUBKTNV-1" source="Uk3zO1UtHS6cS2w6a-4t-0" target="Uk3zO1UtHS6cS2w6a-4t-2">
          <mxGeometry relative="1" as="geometry" />
        </mxCell>
        <mxCell id="Uk3zO1UtHS6cS2w6a-4t-0" value="" style="rounded=0;whiteSpace=wrap;html=1;strokeColor=#FFFFFF;strokeWidth=4;" vertex="1" parent="WIyWlLk6GJQsqaUBKTNV-1">
          <mxGeometry x="370" y="30" width="120" height="60" as="geometry" />
        </mxCell>
        <mxCell id="Uk3zO1UtHS6cS2w6a-4t-1" value="&lt;font style=&quot;font-size: 15px;&quot;&gt;Material App&lt;/font&gt;" style="text;strokeColor=#FFFFFF;fillColor=none;html=1;fontSize=24;fontStyle=1;verticalAlign=middle;align=center;strokeWidth=4;" vertex="1" parent="WIyWlLk6GJQsqaUBKTNV-1">
          <mxGeometry x="380" y="40" width="100" height="40" as="geometry" />
        </mxCell>
        <mxCell id="Uk3zO1UtHS6cS2w6a-4t-32" style="edgeStyle=orthogonalEdgeStyle;rounded=0;orthogonalLoop=1;jettySize=auto;html=1;exitX=0.5;exitY=1;exitDx=0;exitDy=0;entryX=0.5;entryY=0;entryDx=0;entryDy=0;fontSize=15;strokeColor=#FFFFFF;strokeWidth=4;" edge="1" parent="WIyWlLk6GJQsqaUBKTNV-1" source="Uk3zO1UtHS6cS2w6a-4t-2" target="Uk3zO1UtHS6cS2w6a-4t-4">
          <mxGeometry relative="1" as="geometry" />
        </mxCell>
        <mxCell id="Uk3zO1UtHS6cS2w6a-4t-2" value="" style="rounded=0;whiteSpace=wrap;html=1;strokeColor=#FFFFFF;strokeWidth=4;" vertex="1" parent="WIyWlLk6GJQsqaUBKTNV-1">
          <mxGeometry x="370" y="150" width="120" height="60" as="geometry" />
        </mxCell>
        <mxCell id="Uk3zO1UtHS6cS2w6a-4t-3" value="&lt;span style=&quot;font-size: 15px;&quot;&gt;scaffold&lt;/span&gt;" style="text;strokeColor=#FFFFFF;fillColor=none;html=1;fontSize=24;fontStyle=1;verticalAlign=middle;align=center;strokeWidth=4;" vertex="1" parent="WIyWlLk6GJQsqaUBKTNV-1">
          <mxGeometry x="380" y="160" width="100" height="40" as="geometry" />
        </mxCell>
        <mxCell id="Uk3zO1UtHS6cS2w6a-4t-35" style="edgeStyle=orthogonalEdgeStyle;rounded=0;orthogonalLoop=1;jettySize=auto;html=1;exitX=0.5;exitY=1;exitDx=0;exitDy=0;fontSize=15;strokeColor=#FFFFFF;strokeWidth=4;" edge="1" parent="WIyWlLk6GJQsqaUBKTNV-1" source="Uk3zO1UtHS6cS2w6a-4t-4" target="Uk3zO1UtHS6cS2w6a-4t-11">
          <mxGeometry relative="1" as="geometry" />
        </mxCell>
        <mxCell id="Uk3zO1UtHS6cS2w6a-4t-36" style="edgeStyle=orthogonalEdgeStyle;rounded=0;orthogonalLoop=1;jettySize=auto;html=1;exitX=0.5;exitY=1;exitDx=0;exitDy=0;entryX=0.5;entryY=0;entryDx=0;entryDy=0;fontSize=15;strokeColor=#FFFFFF;strokeWidth=4;" edge="1" parent="WIyWlLk6GJQsqaUBKTNV-1" source="Uk3zO1UtHS6cS2w6a-4t-4" target="Uk3zO1UtHS6cS2w6a-4t-7">
          <mxGeometry relative="1" as="geometry" />
        </mxCell>
        <mxCell id="Uk3zO1UtHS6cS2w6a-4t-37" style="edgeStyle=orthogonalEdgeStyle;rounded=0;orthogonalLoop=1;jettySize=auto;html=1;exitX=0.5;exitY=1;exitDx=0;exitDy=0;entryX=0.5;entryY=0;entryDx=0;entryDy=0;fontSize=15;strokeColor=#FFFFFF;strokeWidth=4;" edge="1" parent="WIyWlLk6GJQsqaUBKTNV-1" source="Uk3zO1UtHS6cS2w6a-4t-4" target="Uk3zO1UtHS6cS2w6a-4t-8">
          <mxGeometry relative="1" as="geometry" />
        </mxCell>
        <mxCell id="Uk3zO1UtHS6cS2w6a-4t-38" style="edgeStyle=orthogonalEdgeStyle;rounded=0;orthogonalLoop=1;jettySize=auto;html=1;exitX=0.5;exitY=1;exitDx=0;exitDy=0;entryX=0.5;entryY=0;entryDx=0;entryDy=0;fontSize=15;strokeColor=#FFFFFF;strokeWidth=4;" edge="1" parent="WIyWlLk6GJQsqaUBKTNV-1" source="Uk3zO1UtHS6cS2w6a-4t-4" target="Uk3zO1UtHS6cS2w6a-4t-12">
          <mxGeometry relative="1" as="geometry" />
        </mxCell>
        <mxCell id="Uk3zO1UtHS6cS2w6a-4t-48" style="edgeStyle=orthogonalEdgeStyle;rounded=0;orthogonalLoop=1;jettySize=auto;html=1;exitX=0;exitY=0.5;exitDx=0;exitDy=0;entryX=1;entryY=0.5;entryDx=0;entryDy=0;fontSize=15;strokeColor=#FFFFFF;strokeWidth=4;" edge="1" parent="WIyWlLk6GJQsqaUBKTNV-1" source="Uk3zO1UtHS6cS2w6a-4t-4" target="Uk3zO1UtHS6cS2w6a-4t-29">
          <mxGeometry relative="1" as="geometry" />
        </mxCell>
        <mxCell id="Uk3zO1UtHS6cS2w6a-4t-4" value="" style="rounded=0;whiteSpace=wrap;html=1;strokeColor=#FFFFFF;strokeWidth=4;" vertex="1" parent="WIyWlLk6GJQsqaUBKTNV-1">
          <mxGeometry x="370" y="280" width="120" height="60" as="geometry" />
        </mxCell>
        <mxCell id="Uk3zO1UtHS6cS2w6a-4t-5" value="&lt;span style=&quot;font-size: 15px;&quot;&gt;Home scene:&lt;br&gt;Consumer&lt;br&gt;&lt;/span&gt;" style="text;strokeColor=#FFFFFF;fillColor=none;html=1;fontSize=24;fontStyle=1;verticalAlign=middle;align=center;strokeWidth=4;" vertex="1" parent="WIyWlLk6GJQsqaUBKTNV-1">
          <mxGeometry x="380" y="290" width="100" height="40" as="geometry" />
        </mxCell>
        <mxCell id="Uk3zO1UtHS6cS2w6a-4t-6" value="" style="rounded=0;whiteSpace=wrap;html=1;strokeColor=#FFFFFF;strokeWidth=4;" vertex="1" parent="WIyWlLk6GJQsqaUBKTNV-1">
          <mxGeometry x="280" y="400" width="120" height="60" as="geometry" />
        </mxCell>
        <mxCell id="Uk3zO1UtHS6cS2w6a-4t-7" value="&lt;span style=&quot;font-size: 15px;&quot;&gt;Home page&lt;br&gt;widget&lt;br&gt;&lt;/span&gt;" style="text;strokeColor=#FFFFFF;fillColor=none;html=1;fontSize=24;fontStyle=1;verticalAlign=middle;align=center;strokeWidth=4;" vertex="1" parent="WIyWlLk6GJQsqaUBKTNV-1">
          <mxGeometry x="290" y="410" width="100" height="40" as="geometry" />
        </mxCell>
        <mxCell id="Uk3zO1UtHS6cS2w6a-4t-8" value="" style="rounded=0;whiteSpace=wrap;html=1;strokeColor=#FFFFFF;strokeWidth=4;" vertex="1" parent="WIyWlLk6GJQsqaUBKTNV-1">
          <mxGeometry x="480" y="400" width="120" height="60" as="geometry" />
        </mxCell>
        <mxCell id="Uk3zO1UtHS6cS2w6a-4t-9" value="&lt;span style=&quot;font-size: 15px;&quot;&gt;waiting screen&amp;nbsp;&lt;br&gt;widget&lt;br&gt;&lt;/span&gt;" style="text;strokeColor=#FFFFFF;fillColor=none;html=1;fontSize=24;fontStyle=1;verticalAlign=middle;align=center;strokeWidth=4;" vertex="1" parent="WIyWlLk6GJQsqaUBKTNV-1">
          <mxGeometry x="490" y="410" width="100" height="40" as="geometry" />
        </mxCell>
        <mxCell id="Uk3zO1UtHS6cS2w6a-4t-10" value="" style="rounded=0;whiteSpace=wrap;html=1;strokeColor=#FFFFFF;strokeWidth=4;" vertex="1" parent="WIyWlLk6GJQsqaUBKTNV-1">
          <mxGeometry x="100" y="400" width="120" height="60" as="geometry" />
        </mxCell>
        <mxCell id="Uk3zO1UtHS6cS2w6a-4t-11" value="&lt;span style=&quot;font-size: 15px;&quot;&gt;Home page&lt;br&gt;paint&lt;br&gt;&lt;/span&gt;" style="text;strokeColor=#FFFFFF;fillColor=none;html=1;fontSize=24;fontStyle=1;verticalAlign=middle;align=center;strokeWidth=4;" vertex="1" parent="WIyWlLk6GJQsqaUBKTNV-1">
          <mxGeometry x="110" y="410" width="100" height="40" as="geometry" />
        </mxCell>
        <mxCell id="Uk3zO1UtHS6cS2w6a-4t-12" value="" style="rounded=0;whiteSpace=wrap;html=1;strokeColor=#FFFFFF;strokeWidth=4;" vertex="1" parent="WIyWlLk6GJQsqaUBKTNV-1">
          <mxGeometry x="670" y="400" width="120" height="60" as="geometry" />
        </mxCell>
        <mxCell id="Uk3zO1UtHS6cS2w6a-4t-13" value="&lt;span style=&quot;font-size: 15px;&quot;&gt;waiting screen&amp;nbsp;&lt;br&gt;paint&lt;br&gt;&lt;/span&gt;" style="text;strokeColor=#FFFFFF;fillColor=none;html=1;fontSize=24;fontStyle=1;verticalAlign=middle;align=center;strokeWidth=4;" vertex="1" parent="WIyWlLk6GJQsqaUBKTNV-1">
          <mxGeometry x="680" y="410" width="100" height="40" as="geometry" />
        </mxCell>
        <mxCell id="Uk3zO1UtHS6cS2w6a-4t-14" value="" style="rounded=0;whiteSpace=wrap;html=1;strokeColor=#FFFFFF;strokeWidth=4;" vertex="1" parent="WIyWlLk6GJQsqaUBKTNV-1">
          <mxGeometry x="294" y="580" width="120" height="60" as="geometry" />
        </mxCell>
        <mxCell id="Uk3zO1UtHS6cS2w6a-4t-15" value="&lt;span style=&quot;font-size: 15px;&quot;&gt;Sound&lt;br&gt;widget&lt;br&gt;&lt;/span&gt;" style="text;strokeColor=#FFFFFF;fillColor=none;html=1;fontSize=24;fontStyle=1;verticalAlign=middle;align=center;strokeWidth=4;" vertex="1" parent="WIyWlLk6GJQsqaUBKTNV-1">
          <mxGeometry x="304" y="590" width="100" height="40" as="geometry" />
        </mxCell>
        <mxCell id="Uk3zO1UtHS6cS2w6a-4t-16" value="" style="rounded=0;whiteSpace=wrap;html=1;strokeColor=#FFFFFF;strokeWidth=4;" vertex="1" parent="WIyWlLk6GJQsqaUBKTNV-1">
          <mxGeometry x="420" y="580" width="120" height="60" as="geometry" />
        </mxCell>
        <mxCell id="Uk3zO1UtHS6cS2w6a-4t-17" value="&lt;span style=&quot;font-size: 15px;&quot;&gt;setting&amp;nbsp;&lt;br&gt;widget&lt;br&gt;&lt;/span&gt;" style="text;strokeColor=#FFFFFF;fillColor=none;html=1;fontSize=24;fontStyle=1;verticalAlign=middle;align=center;strokeWidth=4;" vertex="1" parent="WIyWlLk6GJQsqaUBKTNV-1">
          <mxGeometry x="430" y="590" width="100" height="40" as="geometry" />
        </mxCell>
        <mxCell id="Uk3zO1UtHS6cS2w6a-4t-18" value="" style="rounded=0;whiteSpace=wrap;html=1;strokeColor=#FFFFFF;strokeWidth=4;" vertex="1" parent="WIyWlLk6GJQsqaUBKTNV-1">
          <mxGeometry x="160" y="580" width="120" height="60" as="geometry" />
        </mxCell>
        <mxCell id="Uk3zO1UtHS6cS2w6a-4t-19" value="&lt;span style=&quot;font-size: 15px;&quot;&gt;Shop&lt;br&gt;widget&lt;br&gt;&lt;/span&gt;" style="text;strokeColor=#FFFFFF;fillColor=none;html=1;fontSize=24;fontStyle=1;verticalAlign=middle;align=center;strokeWidth=4;" vertex="1" parent="WIyWlLk6GJQsqaUBKTNV-1">
          <mxGeometry x="170" y="590" width="100" height="40" as="geometry" />
        </mxCell>
        <mxCell id="Uk3zO1UtHS6cS2w6a-4t-21" value="" style="rounded=0;whiteSpace=wrap;html=1;strokeColor=#FFFFFF;strokeWidth=4;" vertex="1" parent="WIyWlLk6GJQsqaUBKTNV-1">
          <mxGeometry x="550" y="580" width="120" height="60" as="geometry" />
        </mxCell>
        <mxCell id="Uk3zO1UtHS6cS2w6a-4t-22" value="&lt;span style=&quot;font-size: 15px;&quot;&gt;Skin&amp;nbsp;&lt;br&gt;widget&lt;br&gt;&lt;/span&gt;" style="text;strokeColor=#FFFFFF;fillColor=none;html=1;fontSize=24;fontStyle=1;verticalAlign=middle;align=center;strokeWidth=4;" vertex="1" parent="WIyWlLk6GJQsqaUBKTNV-1">
          <mxGeometry x="560" y="590" width="100" height="40" as="geometry" />
        </mxCell>
        <mxCell id="Uk3zO1UtHS6cS2w6a-4t-23" value="" style="rounded=0;whiteSpace=wrap;html=1;strokeColor=#FFFFFF;strokeWidth=4;" vertex="1" parent="WIyWlLk6GJQsqaUBKTNV-1">
          <mxGeometry x="680" y="580" width="120" height="60" as="geometry" />
        </mxCell>
        <mxCell id="Uk3zO1UtHS6cS2w6a-4t-24" value="&lt;span style=&quot;font-size: 15px;&quot;&gt;...&lt;br&gt;&lt;/span&gt;" style="text;strokeColor=#FFFFFF;fillColor=none;html=1;fontSize=24;fontStyle=1;verticalAlign=middle;align=center;strokeWidth=4;" vertex="1" parent="WIyWlLk6GJQsqaUBKTNV-1">
          <mxGeometry x="690" y="590" width="100" height="40" as="geometry" />
        </mxCell>
        <mxCell id="Uk3zO1UtHS6cS2w6a-4t-45" style="edgeStyle=orthogonalEdgeStyle;rounded=0;orthogonalLoop=1;jettySize=auto;html=1;exitX=1;exitY=0.5;exitDx=0;exitDy=0;entryX=0;entryY=0.5;entryDx=0;entryDy=0;fontSize=15;strokeColor=#FFFFFF;strokeWidth=4;" edge="1" parent="WIyWlLk6GJQsqaUBKTNV-1" source="Uk3zO1UtHS6cS2w6a-4t-25" target="Uk3zO1UtHS6cS2w6a-4t-27">
          <mxGeometry relative="1" as="geometry" />
        </mxCell>
        <mxCell id="Uk3zO1UtHS6cS2w6a-4t-25" value="" style="rounded=0;whiteSpace=wrap;html=1;strokeColor=#FFFFFF;strokeWidth=4;" vertex="1" parent="WIyWlLk6GJQsqaUBKTNV-1">
          <mxGeometry x="30" y="690" width="120" height="60" as="geometry" />
        </mxCell>
        <mxCell id="Uk3zO1UtHS6cS2w6a-4t-26" value="&lt;span style=&quot;font-size: 15px;&quot;&gt;GameScene:&lt;br&gt;consumer&lt;br&gt;&lt;/span&gt;" style="text;strokeColor=#FFFFFF;fillColor=none;html=1;fontSize=24;fontStyle=1;verticalAlign=middle;align=center;strokeWidth=4;" vertex="1" parent="WIyWlLk6GJQsqaUBKTNV-1">
          <mxGeometry x="40" y="700" width="100" height="40" as="geometry" />
        </mxCell>
        <mxCell id="Uk3zO1UtHS6cS2w6a-4t-27" value="" style="rounded=0;whiteSpace=wrap;html=1;strokeColor=#FFFFFF;strokeWidth=4;" vertex="1" parent="WIyWlLk6GJQsqaUBKTNV-1">
          <mxGeometry x="184" y="690" width="120" height="60" as="geometry" />
        </mxCell>
        <mxCell id="Uk3zO1UtHS6cS2w6a-4t-28" value="&lt;span style=&quot;font-size: 15px;&quot;&gt;Game page&lt;br&gt;paint&lt;br&gt;&lt;/span&gt;" style="text;strokeColor=#FFFFFF;fillColor=none;html=1;fontSize=24;fontStyle=1;verticalAlign=middle;align=center;strokeWidth=4;" vertex="1" parent="WIyWlLk6GJQsqaUBKTNV-1">
          <mxGeometry x="194" y="700" width="100" height="40" as="geometry" />
        </mxCell>
        <mxCell id="Uk3zO1UtHS6cS2w6a-4t-29" value="" style="rounded=0;whiteSpace=wrap;html=1;strokeColor=#FFFFFF;strokeWidth=4;" vertex="1" parent="WIyWlLk6GJQsqaUBKTNV-1">
          <mxGeometry x="40" y="280" width="120" height="60" as="geometry" />
        </mxCell>
        <mxCell id="Uk3zO1UtHS6cS2w6a-4t-30" value="&lt;span style=&quot;font-size: 15px;&quot;&gt;Stage&lt;br&gt;&lt;/span&gt;" style="text;strokeColor=#FFFFFF;fillColor=none;html=1;fontSize=24;fontStyle=1;verticalAlign=middle;align=center;strokeWidth=4;" vertex="1" parent="WIyWlLk6GJQsqaUBKTNV-1">
          <mxGeometry x="50" y="290" width="100" height="40" as="geometry" />
        </mxCell>
        <mxCell id="Uk3zO1UtHS6cS2w6a-4t-39" value="" style="endArrow=classic;html=1;rounded=0;fontSize=15;entryX=0.5;entryY=0;entryDx=0;entryDy=0;exitX=0.5;exitY=1;exitDx=0;exitDy=0;strokeColor=#FFFFFF;strokeWidth=4;" edge="1" parent="WIyWlLk6GJQsqaUBKTNV-1" source="Uk3zO1UtHS6cS2w6a-4t-6" target="Uk3zO1UtHS6cS2w6a-4t-18">
          <mxGeometry width="50" height="50" relative="1" as="geometry">
            <mxPoint x="330" y="580" as="sourcePoint" />
            <mxPoint x="380" y="530" as="targetPoint" />
          </mxGeometry>
        </mxCell>
        <mxCell id="Uk3zO1UtHS6cS2w6a-4t-40" value="" style="endArrow=classic;html=1;rounded=0;fontSize=15;entryX=0.5;entryY=0;entryDx=0;entryDy=0;exitX=0.5;exitY=1;exitDx=0;exitDy=0;strokeColor=#FFFFFF;strokeWidth=4;" edge="1" parent="WIyWlLk6GJQsqaUBKTNV-1" source="Uk3zO1UtHS6cS2w6a-4t-6" target="Uk3zO1UtHS6cS2w6a-4t-14">
          <mxGeometry width="50" height="50" relative="1" as="geometry">
            <mxPoint x="350" y="470" as="sourcePoint" />
            <mxPoint x="230" y="590" as="targetPoint" />
          </mxGeometry>
        </mxCell>
        <mxCell id="Uk3zO1UtHS6cS2w6a-4t-41" value="" style="endArrow=classic;html=1;rounded=0;fontSize=15;entryX=0.5;entryY=0;entryDx=0;entryDy=0;exitX=0.5;exitY=1;exitDx=0;exitDy=0;strokeColor=#FFFFFF;strokeWidth=4;" edge="1" parent="WIyWlLk6GJQsqaUBKTNV-1" source="Uk3zO1UtHS6cS2w6a-4t-6" target="Uk3zO1UtHS6cS2w6a-4t-16">
          <mxGeometry width="50" height="50" relative="1" as="geometry">
            <mxPoint x="350" y="470" as="sourcePoint" />
            <mxPoint x="364" y="590" as="targetPoint" />
          </mxGeometry>
        </mxCell>
        <mxCell id="Uk3zO1UtHS6cS2w6a-4t-42" value="" style="endArrow=classic;html=1;rounded=0;fontSize=15;entryX=0.5;entryY=0;entryDx=0;entryDy=0;strokeColor=#FFFFFF;strokeWidth=4;" edge="1" parent="WIyWlLk6GJQsqaUBKTNV-1" target="Uk3zO1UtHS6cS2w6a-4t-21">
          <mxGeometry width="50" height="50" relative="1" as="geometry">
            <mxPoint x="340" y="460" as="sourcePoint" />
            <mxPoint x="374" y="600" as="targetPoint" />
          </mxGeometry>
        </mxCell>
        <mxCell id="Uk3zO1UtHS6cS2w6a-4t-43" value="" style="endArrow=classic;html=1;rounded=0;fontSize=15;entryX=0.5;entryY=0;entryDx=0;entryDy=0;strokeColor=#FFFFFF;strokeWidth=4;" edge="1" parent="WIyWlLk6GJQsqaUBKTNV-1" target="Uk3zO1UtHS6cS2w6a-4t-23">
          <mxGeometry width="50" height="50" relative="1" as="geometry">
            <mxPoint x="340" y="460" as="sourcePoint" />
            <mxPoint x="384" y="610" as="targetPoint" />
          </mxGeometry>
        </mxCell>
        <mxCell id="Uk3zO1UtHS6cS2w6a-4t-44" value="" style="endArrow=classic;html=1;rounded=0;fontSize=15;entryX=0.5;entryY=0;entryDx=0;entryDy=0;strokeColor=#FFFFFF;strokeWidth=4;" edge="1" parent="WIyWlLk6GJQsqaUBKTNV-1" target="Uk3zO1UtHS6cS2w6a-4t-25">
          <mxGeometry width="50" height="50" relative="1" as="geometry">
            <mxPoint x="340" y="460" as="sourcePoint" />
            <mxPoint x="394" y="620" as="targetPoint" />
            <Array as="points">
              <mxPoint x="130" y="550" />
            </Array>
          </mxGeometry>
        </mxCell>
        <mxCell id="Uk3zO1UtHS6cS2w6a-4t-47" value="" style="endArrow=classic;html=1;rounded=0;fontSize=15;exitX=0.5;exitY=1;exitDx=0;exitDy=0;entryX=0.5;entryY=0;entryDx=0;entryDy=0;strokeColor=#FFFFFF;strokeWidth=4;" edge="1" parent="WIyWlLk6GJQsqaUBKTNV-1" source="Uk3zO1UtHS6cS2w6a-4t-29" target="Uk3zO1UtHS6cS2w6a-4t-25">
          <mxGeometry width="50" height="50" relative="1" as="geometry">
            <mxPoint x="40" y="560" as="sourcePoint" />
            <mxPoint x="90" y="510" as="targetPoint" />
            <Array as="points">
              <mxPoint x="50" y="480" />
            </Array>
          </mxGeometry>
        </mxCell>
      </root>
    </mxGraphModel>
  </diagram>
</mxfile>
